<svg xmlns="http://www.w3.org/2000/svg" width="1240" height="620" viewBox="0 0 1240 620" role="img">
<rect x="0" y="0" width="1240" height="620" fill="#ffffff" rx="0" ry="0" />
<text x="40" y="38" font-size="22" font-family="Segoe UI, Arial, sans-serif" font-weight="700" fill="#111827" text-anchor="start">Latency by Input Size</text>
<text x="40" y="62" font-size="13" font-family="Segoe UI, Arial, sans-serif" font-weight="400" fill="#475569" text-anchor="start">Server elapsed time; warmup excluded. CPU timeout markers are HTTP 504 at ~300 s.</text>
<text x="78" y="92" font-size="17" font-family="Segoe UI, Arial, sans-serif" font-weight="700" fill="#111827" text-anchor="start">CPU</text>
<rect x="78" y="116" width="510" height="410" fill="#ffffff" stroke="#cbd5e1" rx="0" ry="0" />
<line x1="78" y1="526.0" x2="588" y2="526.0" stroke="#e2e8f0" stroke-width="1" />
<text x="68" y="530.0" font-size="11" font-family="Segoe UI, Arial, sans-serif" font-weight="400" fill="#475569" text-anchor="end">0.1s</text>
<line x1="78" y1="470.19" x2="588" y2="470.19" stroke="#e2e8f0" stroke-width="1" />
<text x="68" y="474.19" font-size="11" font-family="Segoe UI, Arial, sans-serif" font-weight="400" fill="#475569" text-anchor="end">0.3s</text>
<line x1="78" y1="409.03" x2="588" y2="409.03" stroke="#e2e8f0" stroke-width="1" />
<text x="68" y="413.03" font-size="11" font-family="Segoe UI, Arial, sans-serif" font-weight="400" fill="#475569" text-anchor="end">1s</text>
<line x1="78" y1="353.22" x2="588" y2="353.22" stroke="#e2e8f0" stroke-width="1" />
<text x="68" y="357.22" font-size="11" font-family="Segoe UI, Arial, sans-serif" font-weight="400" fill="#475569" text-anchor="end">3s</text>
<line x1="78" y1="292.06" x2="588" y2="292.06" stroke="#e2e8f0" stroke-width="1" />
<text x="68" y="296.06" font-size="11" font-family="Segoe UI, Arial, sans-serif" font-weight="400" fill="#475569" text-anchor="end">10s</text>
<line x1="78" y1="236.25" x2="588" y2="236.25" stroke="#e2e8f0" stroke-width="1" />
<text x="68" y="240.25" font-size="11" font-family="Segoe UI, Arial, sans-serif" font-weight="400" fill="#475569" text-anchor="end">30s</text>
<line x1="78" y1="175.09" x2="588" y2="175.09" stroke="#e2e8f0" stroke-width="1" />
<text x="68" y="179.09" font-size="11" font-family="Segoe UI, Arial, sans-serif" font-weight="400" fill="#475569" text-anchor="end">100s</text>
<line x1="78" y1="119.28" x2="588" y2="119.28" stroke="#e2e8f0" stroke-width="1" />
<text x="68" y="123.28" font-size="11" font-family="Segoe UI, Arial, sans-serif" font-weight="400" fill="#475569" text-anchor="end">300s</text>
<line x1="78.0" y1="116" x2="78.0" y2="526" stroke="#f1f5f9" stroke-width="1" />
<text x="78.0" y="546" font-size="11" font-family="Segoe UI, Arial, sans-serif" font-weight="400" fill="#475569" text-anchor="middle">256</text>
<line x1="131.07" y1="116" x2="131.07" y2="526" stroke="#f1f5f9" stroke-width="1" />
<text x="131.07" y="546" font-size="11" font-family="Segoe UI, Arial, sans-serif" font-weight="400" fill="#475569" text-anchor="middle">512</text>
<line x1="182.33" y1="116" x2="182.33" y2="526" stroke="#f1f5f9" stroke-width="1" />
<text x="182.33" y="546" font-size="11" font-family="Segoe UI, Arial, sans-serif" font-weight="400" fill="#475569" text-anchor="middle">1k</text>
<line x1="266.44" y1="116" x2="266.44" y2="526" stroke="#f1f5f9" stroke-width="1" />
<text x="266.44" y="546" font-size="11" font-family="Segoe UI, Arial, sans-serif" font-weight="400" fill="#475569" text-anchor="middle">3k</text>
<line x1="372.59" y1="116" x2="372.59" y2="526" stroke="#f1f5f9" stroke-width="1" />
<text x="372.59" y="546" font-size="11" font-family="Segoe UI, Arial, sans-serif" font-weight="400" fill="#475569" text-anchor="middle">12k</text>
<line x1="481.86" y1="116" x2="481.86" y2="526" stroke="#f1f5f9" stroke-width="1" />
<text x="481.86" y="546" font-size="11" font-family="Segoe UI, Arial, sans-serif" font-weight="400" fill="#475569" text-anchor="middle">50k</text>
<line x1="534.93" y1="116" x2="534.93" y2="526" stroke="#f1f5f9" stroke-width="1" />
<text x="534.93" y="546" font-size="11" font-family="Segoe UI, Arial, sans-serif" font-weight="400" fill="#475569" text-anchor="middle">100k</text>
<line x1="588.0" y1="116" x2="588.0" y2="526" stroke="#f1f5f9" stroke-width="1" />
<text x="588.0" y="546" font-size="11" font-family="Segoe UI, Arial, sans-serif" font-weight="400" fill="#475569" text-anchor="middle">200k</text>
<text x="333.0" y="574" font-size="12" font-family="Segoe UI, Arial, sans-serif" font-weight="400" fill="#475569" text-anchor="middle">target tokens</text>
<text x="24" y="321.0" font-size="12" font-family="Segoe UI, Arial, sans-serif" font-weight="400" fill="#475569" text-anchor="middle" transform="rotate(-90 24 321.0)">seconds</text>
<polyline points="78.0,384.2 131.07,393.09 182.33,364.74 213.37,337.11 235.4,329.36 252.48,323.13 266.44,305.34 319.52,282.24 372.59,242.56 425.66,207.55 481.86,171.26 534.93,136.51" fill="none" stroke="#2563eb" stroke-width="2.4" stroke-linejoin="round" stroke-linecap="round" />
<circle cx="78.0" cy="384.2" r="4" fill="#2563eb" stroke="#fff" stroke-width="1" />
<circle cx="131.07" cy="393.09" r="4" fill="#2563eb" stroke="#fff" stroke-width="1" />
<circle cx="182.33" cy="364.74" r="4" fill="#2563eb" stroke="#fff" stroke-width="1" />
<circle cx="213.37" cy="337.11" r="4" fill="#2563eb" stroke="#fff" stroke-width="1" />
<circle cx="235.4" cy="329.36" r="4" fill="#2563eb" stroke="#fff" stroke-width="1" />
<circle cx="252.48" cy="323.13" r="4" fill="#2563eb" stroke="#fff" stroke-width="1" />
<circle cx="266.44" cy="305.34" r="4" fill="#2563eb" stroke="#fff" stroke-width="1" />
<circle cx="319.52" cy="282.24" r="4" fill="#2563eb" stroke="#fff" stroke-width="1" />
<circle cx="372.59" cy="242.56" r="4" fill="#2563eb" stroke="#fff" stroke-width="1" />
<circle cx="425.66" cy="207.55" r="4" fill="#2563eb" stroke="#fff" stroke-width="1" />
<circle cx="481.86" cy="171.26" r="4" fill="#2563eb" stroke="#fff" stroke-width="1" />
<circle cx="534.93" cy="136.51" r="4" fill="#2563eb" stroke="#fff" stroke-width="1" />
<polyline points="78.0,395.94 131.07,392.49 182.33,365.26 213.37,337.64 235.4,335.35 252.48,320.7 266.44,318.16 319.52,287.13 372.59,247.35 425.66,214.58 481.86,176.93 534.93,147.19" fill="none" stroke="#059669" stroke-width="2.4" stroke-linejoin="round" stroke-linecap="round" />
<circle cx="78.0" cy="395.94" r="4" fill="#059669" stroke="#fff" stroke-width="1" />
<circle cx="131.07" cy="392.49" r="4" fill="#059669" stroke="#fff" stroke-width="1" />
<circle cx="182.33" cy="365.26" r="4" fill="#059669" stroke="#fff" stroke-width="1" />
<circle cx="213.37" cy="337.64" r="4" fill="#059669" stroke="#fff" stroke-width="1" />
<circle cx="235.4" cy="335.35" r="4" fill="#059669" stroke="#fff" stroke-width="1" />
<circle cx="252.48" cy="320.7" r="4" fill="#059669" stroke="#fff" stroke-width="1" />
<circle cx="266.44" cy="318.16" r="4" fill="#059669" stroke="#fff" stroke-width="1" />
<circle cx="319.52" cy="287.13" r="4" fill="#059669" stroke="#fff" stroke-width="1" />
<circle cx="372.59" cy="247.35" r="4" fill="#059669" stroke="#fff" stroke-width="1" />
<circle cx="425.66" cy="214.58" r="4" fill="#059669" stroke="#fff" stroke-width="1" />
<circle cx="481.86" cy="176.93" r="4" fill="#059669" stroke="#fff" stroke-width="1" />
<circle cx="534.93" cy="147.19" r="4" fill="#059669" stroke="#fff" stroke-width="1" />
<polyline points="78.0,399.45 131.07,394.23 182.33,362.0 213.37,336.08 235.4,347.94 252.48,330.65 266.44,319.92 319.52,293.48 372.59,258.76 425.66,221.96 481.86,181.91 534.93,145.98" fill="none" stroke="#d97706" stroke-width="2.4" stroke-linejoin="round" stroke-linecap="round" />
<circle cx="78.0" cy="399.45" r="4" fill="#d97706" stroke="#fff" stroke-width="1" />
<circle cx="131.07" cy="394.23" r="4" fill="#d97706" stroke="#fff" stroke-width="1" />
<circle cx="182.33" cy="362.0" r="4" fill="#d97706" stroke="#fff" stroke-width="1" />
<circle cx="213.37" cy="336.08" r="4" fill="#d97706" stroke="#fff" stroke-width="1" />
<circle cx="235.4" cy="347.94" r="4" fill="#d97706" stroke="#fff" stroke-width="1" />
<circle cx="252.48" cy="330.65" r="4" fill="#d97706" stroke="#fff" stroke-width="1" />
<circle cx="266.44" cy="319.92" r="4" fill="#d97706" stroke="#fff" stroke-width="1" />
<circle cx="319.52" cy="293.48" r="4" fill="#d97706" stroke="#fff" stroke-width="1" />
<circle cx="372.59" cy="258.76" r="4" fill="#d97706" stroke="#fff" stroke-width="1" />
<circle cx="425.66" cy="221.96" r="4" fill="#d97706" stroke="#fff" stroke-width="1" />
<circle cx="481.86" cy="181.91" r="4" fill="#d97706" stroke="#fff" stroke-width="1" />
<circle cx="534.93" cy="145.98" r="4" fill="#d97706" stroke="#fff" stroke-width="1" />
<polyline points="78.0,398.95 131.07,391.29 182.33,395.74 213.37,362.44 235.4,367.99 252.48,347.05 266.44,349.18 319.52,311.04 372.59,281.29 425.66,242.98 481.86,205.97 534.93,173.46" fill="none" stroke="#dc2626" stroke-width="2.4" stroke-linejoin="round" stroke-linecap="round" />
<circle cx="78.0" cy="398.95" r="4" fill="#dc2626" stroke="#fff" stroke-width="1" />
<circle cx="131.07" cy="391.29" r="4" fill="#dc2626" stroke="#fff" stroke-width="1" />
<circle cx="182.33" cy="395.74" r="4" fill="#dc2626" stroke="#fff" stroke-width="1" />
<circle cx="213.37" cy="362.44" r="4" fill="#dc2626" stroke="#fff" stroke-width="1" />
<circle cx="235.4" cy="367.99" r="4" fill="#dc2626" stroke="#fff" stroke-width="1" />
<circle cx="252.48" cy="347.05" r="4" fill="#dc2626" stroke="#fff" stroke-width="1" />
<circle cx="266.44" cy="349.18" r="4" fill="#dc2626" stroke="#fff" stroke-width="1" />
<circle cx="319.52" cy="311.04" r="4" fill="#dc2626" stroke="#fff" stroke-width="1" />
<circle cx="372.59" cy="281.29" r="4" fill="#dc2626" stroke="#fff" stroke-width="1" />
<circle cx="425.66" cy="242.98" r="4" fill="#dc2626" stroke="#fff" stroke-width="1" />
<circle cx="481.86" cy="205.97" r="4" fill="#dc2626" stroke="#fff" stroke-width="1" />
<circle cx="534.93" cy="173.46" r="4" fill="#dc2626" stroke="#fff" stroke-width="1" />
<polyline points="78.0,397.97 131.07,396.6 182.33,398.46 213.37,393.29 235.4,394.39 252.48,361.67 266.44,365.53 319.52,347.67 372.59,311.2 425.66,283.47 481.86,241.76 534.93,209.91" fill="none" stroke="#7c3aed" stroke-width="2.4" stroke-linejoin="round" stroke-linecap="round" />
<circle cx="78.0" cy="397.97" r="4" fill="#7c3aed" stroke="#fff" stroke-width="1" />
<circle cx="131.07" cy="396.6" r="4" fill="#7c3aed" stroke="#fff" stroke-width="1" />
<circle cx="182.33" cy="398.46" r="4" fill="#7c3aed" stroke="#fff" stroke-width="1" />
<circle cx="213.37" cy="393.29" r="4" fill="#7c3aed" stroke="#fff" stroke-width="1" />
<circle cx="235.4" cy="394.39" r="4" fill="#7c3aed" stroke="#fff" stroke-width="1" />
<circle cx="252.48" cy="361.67" r="4" fill="#7c3aed" stroke="#fff" stroke-width="1" />
<circle cx="266.44" cy="365.53" r="4" fill="#7c3aed" stroke="#fff" stroke-width="1" />
<circle cx="319.52" cy="347.67" r="4" fill="#7c3aed" stroke="#fff" stroke-width="1" />
<circle cx="372.59" cy="311.2" r="4" fill="#7c3aed" stroke="#fff" stroke-width="1" />
<circle cx="425.66" cy="283.47" r="4" fill="#7c3aed" stroke="#fff" stroke-width="1" />
<circle cx="481.86" cy="241.76" r="4" fill="#7c3aed" stroke="#fff" stroke-width="1" />
<circle cx="534.93" cy="209.91" r="4" fill="#7c3aed" stroke="#fff" stroke-width="1" />
<line x1="582.0" y1="113.28" x2="594.0" y2="125.28" stroke="#2563eb" stroke-width="2.4" />
<line x1="582.0" y1="125.28" x2="594.0" y2="113.28" stroke="#2563eb" stroke-width="2.4" />
<line x1="582.0" y1="113.28" x2="594.0" y2="125.28" stroke="#059669" stroke-width="2.4" />
<line x1="582.0" y1="125.28" x2="594.0" y2="113.28" stroke="#059669" stroke-width="2.4" />
<line x1="78" y1="119.28" x2="588" y2="119.28" stroke="#94a3b8" stroke-width="1" stroke-dasharray="4 4" />
<text x="583" y="112.28" font-size="11" font-family="Segoe UI, Arial, sans-serif" font-weight="400" fill="#64748b" text-anchor="end">300 s timeout</text>
<text x="688" y="92" font-size="17" font-family="Segoe UI, Arial, sans-serif" font-weight="700" fill="#111827" text-anchor="start">GPU</text>
<rect x="688" y="116" width="510" height="410" fill="#ffffff" stroke="#cbd5e1" rx="0" ry="0" />
<line x1="688" y1="526.0" x2="1198" y2="526.0" stroke="#e2e8f0" stroke-width="1" />
<text x="678" y="530.0" font-size="11" font-family="Segoe UI, Arial, sans-serif" font-weight="400" fill="#475569" text-anchor="end">0.1s</text>
<line x1="688" y1="470.19" x2="1198" y2="470.19" stroke="#e2e8f0" stroke-width="1" />
<text x="678" y="474.19" font-size="11" font-family="Segoe UI, Arial, sans-serif" font-weight="400" fill="#475569" text-anchor="end">0.3s</text>
<line x1="688" y1="409.03" x2="1198" y2="409.03" stroke="#e2e8f0" stroke-width="1" />
<text x="678" y="413.03" font-size="11" font-family="Segoe UI, Arial, sans-serif" font-weight="400" fill="#475569" text-anchor="end">1s</text>
<line x1="688" y1="353.22" x2="1198" y2="353.22" stroke="#e2e8f0" stroke-width="1" />
<text x="678" y="357.22" font-size="11" font-family="Segoe UI, Arial, sans-serif" font-weight="400" fill="#475569" text-anchor="end">3s</text>
<line x1="688" y1="292.06" x2="1198" y2="292.06" stroke="#e2e8f0" stroke-width="1" />
<text x="678" y="296.06" font-size="11" font-family="Segoe UI, Arial, sans-serif" font-weight="400" fill="#475569" text-anchor="end">10s</text>
<line x1="688" y1="236.25" x2="1198" y2="236.25" stroke="#e2e8f0" stroke-width="1" />
<text x="678" y="240.25" font-size="11" font-family="Segoe UI, Arial, sans-serif" font-weight="400" fill="#475569" text-anchor="end">30s</text>
<line x1="688" y1="175.09" x2="1198" y2="175.09" stroke="#e2e8f0" stroke-width="1" />
<text x="678" y="179.09" font-size="11" font-family="Segoe UI, Arial, sans-serif" font-weight="400" fill="#475569" text-anchor="end">100s</text>
<line x1="688" y1="119.28" x2="1198" y2="119.28" stroke="#e2e8f0" stroke-width="1" />
<text x="678" y="123.28" font-size="11" font-family="Segoe UI, Arial, sans-serif" font-weight="400" fill="#475569" text-anchor="end">300s</text>
<line x1="688.0" y1="116" x2="688.0" y2="526" stroke="#f1f5f9" stroke-width="1" />
<text x="688.0" y="546" font-size="11" font-family="Segoe UI, Arial, sans-serif" font-weight="400" fill="#475569" text-anchor="middle">256</text>
<line x1="741.07" y1="116" x2="741.07" y2="526" stroke="#f1f5f9" stroke-width="1" />
<text x="741.07" y="546" font-size="11" font-family="Segoe UI, Arial, sans-serif" font-weight="400" fill="#475569" text-anchor="middle">512</text>
<line x1="792.33" y1="116" x2="792.33" y2="526" stroke="#f1f5f9" stroke-width="1" />
<text x="792.33" y="546" font-size="11" font-family="Segoe UI, Arial, sans-serif" font-weight="400" fill="#475569" text-anchor="middle">1k</text>
<line x1="876.44" y1="116" x2="876.44" y2="526" stroke="#f1f5f9" stroke-width="1" />
<text x="876.44" y="546" font-size="11" font-family="Segoe UI, Arial, sans-serif" font-weight="400" fill="#475569" text-anchor="middle">3k</text>
<line x1="982.59" y1="116" x2="982.59" y2="526" stroke="#f1f5f9" stroke-width="1" />
<text x="982.59" y="546" font-size="11" font-family="Segoe UI, Arial, sans-serif" font-weight="400" fill="#475569" text-anchor="middle">12k</text>
<line x1="1091.86" y1="116" x2="1091.86" y2="526" stroke="#f1f5f9" stroke-width="1" />
<text x="1091.86" y="546" font-size="11" font-family="Segoe UI, Arial, sans-serif" font-weight="400" fill="#475569" text-anchor="middle">50k</text>
<line x1="1144.93" y1="116" x2="1144.93" y2="526" stroke="#f1f5f9" stroke-width="1" />
<text x="1144.93" y="546" font-size="11" font-family="Segoe UI, Arial, sans-serif" font-weight="400" fill="#475569" text-anchor="middle">100k</text>
<line x1="1198.0" y1="116" x2="1198.0" y2="526" stroke="#f1f5f9" stroke-width="1" />
<text x="1198.0" y="546" font-size="11" font-family="Segoe UI, Arial, sans-serif" font-weight="400" fill="#475569" text-anchor="middle">200k</text>
<text x="943.0" y="574" font-size="12" font-family="Segoe UI, Arial, sans-serif" font-weight="400" fill="#475569" text-anchor="middle">target tokens</text>
<text x="634" y="321.0" font-size="12" font-family="Segoe UI, Arial, sans-serif" font-weight="400" fill="#475569" text-anchor="middle" transform="rotate(-90 634 321.0)">seconds</text>
<polyline points="688.0,502.18 741.07,503.89 792.33,495.26 823.37,489.03 845.4,471.11 862.48,485.68 876.44,479.81 929.52,455.42 982.59,424.99 1035.66,389.58 1091.86,355.72 1144.93,317.82 1198.0,275.33" fill="none" stroke="#2563eb" stroke-width="2.4" stroke-linejoin="round" stroke-linecap="round" />
<circle cx="688.0" cy="502.18" r="4" fill="#2563eb" stroke="#fff" stroke-width="1" />
<circle cx="741.07" cy="503.89" r="4" fill="#2563eb" stroke="#fff" stroke-width="1" />
<circle cx="792.33" cy="495.26" r="4" fill="#2563eb" stroke="#fff" stroke-width="1" />
<circle cx="823.37" cy="489.03" r="4" fill="#2563eb" stroke="#fff" stroke-width="1" />
<circle cx="845.4" cy="471.11" r="4" fill="#2563eb" stroke="#fff" stroke-width="1" />
<circle cx="862.48" cy="485.68" r="4" fill="#2563eb" stroke="#fff" stroke-width="1" />
<circle cx="876.44" cy="479.81" r="4" fill="#2563eb" stroke="#fff" stroke-width="1" />
<circle cx="929.52" cy="455.42" r="4" fill="#2563eb" stroke="#fff" stroke-width="1" />
<circle cx="982.59" cy="424.99" r="4" fill="#2563eb" stroke="#fff" stroke-width="1" />
<circle cx="1035.66" cy="389.58" r="4" fill="#2563eb" stroke="#fff" stroke-width="1" />
<circle cx="1091.86" cy="355.72" r="4" fill="#2563eb" stroke="#fff" stroke-width="1" />
<circle cx="1144.93" cy="317.82" r="4" fill="#2563eb" stroke="#fff" stroke-width="1" />
<circle cx="1198.0" cy="275.33" r="4" fill="#2563eb" stroke="#fff" stroke-width="1" />
<polyline points="688.0,505.16 741.07,500.26 792.33,496.6 823.37,490.29 845.4,494.39 862.48,488.59 876.44,484.94 929.52,459.75 982.59,428.75 1035.66,394.36 1091.86,358.03 1144.93,323.15 1198.0,281.06" fill="none" stroke="#059669" stroke-width="2.4" stroke-linejoin="round" stroke-linecap="round" />
<circle cx="688.0" cy="505.16" r="4" fill="#059669" stroke="#fff" stroke-width="1" />
<circle cx="741.07" cy="500.26" r="4" fill="#059669" stroke="#fff" stroke-width="1" />
<circle cx="792.33" cy="496.6" r="4" fill="#059669" stroke="#fff" stroke-width="1" />
<circle cx="823.37" cy="490.29" r="4" fill="#059669" stroke="#fff" stroke-width="1" />
<circle cx="845.4" cy="494.39" r="4" fill="#059669" stroke="#fff" stroke-width="1" />
<circle cx="862.48" cy="488.59" r="4" fill="#059669" stroke="#fff" stroke-width="1" />
<circle cx="876.44" cy="484.94" r="4" fill="#059669" stroke="#fff" stroke-width="1" />
<circle cx="929.52" cy="459.75" r="4" fill="#059669" stroke="#fff" stroke-width="1" />
<circle cx="982.59" cy="428.75" r="4" fill="#059669" stroke="#fff" stroke-width="1" />
<circle cx="1035.66" cy="394.36" r="4" fill="#059669" stroke="#fff" stroke-width="1" />
<circle cx="1091.86" cy="358.03" r="4" fill="#059669" stroke="#fff" stroke-width="1" />
<circle cx="1144.93" cy="323.15" r="4" fill="#059669" stroke="#fff" stroke-width="1" />
<circle cx="1198.0" cy="281.06" r="4" fill="#059669" stroke="#fff" stroke-width="1" />
<polyline points="688.0,502.0 741.07,503.08 792.33,497.98 823.37,490.66 845.4,500.33 862.48,495.11 876.44,485.89 929.52,464.8 982.59,437.02 1035.66,402.35 1091.86,366.43 1144.93,314.56 1198.0,291.11" fill="none" stroke="#d97706" stroke-width="2.4" stroke-linejoin="round" stroke-linecap="round" />
<circle cx="688.0" cy="502.0" r="4" fill="#d97706" stroke="#fff" stroke-width="1" />
<circle cx="741.07" cy="503.08" r="4" fill="#d97706" stroke="#fff" stroke-width="1" />
<circle cx="792.33" cy="497.98" r="4" fill="#d97706" stroke="#fff" stroke-width="1" />
<circle cx="823.37" cy="490.66" r="4" fill="#d97706" stroke="#fff" stroke-width="1" />
<circle cx="845.4" cy="500.33" r="4" fill="#d97706" stroke="#fff" stroke-width="1" />
<circle cx="862.48" cy="495.11" r="4" fill="#d97706" stroke="#fff" stroke-width="1" />
<circle cx="876.44" cy="485.89" r="4" fill="#d97706" stroke="#fff" stroke-width="1" />
<circle cx="929.52" cy="464.8" r="4" fill="#d97706" stroke="#fff" stroke-width="1" />
<circle cx="982.59" cy="437.02" r="4" fill="#d97706" stroke="#fff" stroke-width="1" />
<circle cx="1035.66" cy="402.35" r="4" fill="#d97706" stroke="#fff" stroke-width="1" />
<circle cx="1091.86" cy="366.43" r="4" fill="#d97706" stroke="#fff" stroke-width="1" />
<circle cx="1144.93" cy="314.56" r="4" fill="#d97706" stroke="#fff" stroke-width="1" />
<circle cx="1198.0" cy="291.11" r="4" fill="#d97706" stroke="#fff" stroke-width="1" />
<polyline points="688.0,503.75 741.07,501.96 792.33,502.59 823.37,497.08 845.4,507.85 862.48,498.9 876.44,499.35 929.52,478.58 982.59,452.88 1035.66,419.88 1091.86,379.27 1144.93,348.26 1198.0,308.62" fill="none" stroke="#dc2626" stroke-width="2.4" stroke-linejoin="round" stroke-linecap="round" />
<circle cx="688.0" cy="503.75" r="4" fill="#dc2626" stroke="#fff" stroke-width="1" />
<circle cx="741.07" cy="501.96" r="4" fill="#dc2626" stroke="#fff" stroke-width="1" />
<circle cx="792.33" cy="502.59" r="4" fill="#dc2626" stroke="#fff" stroke-width="1" />
<circle cx="823.37" cy="497.08" r="4" fill="#dc2626" stroke="#fff" stroke-width="1" />
<circle cx="845.4" cy="507.85" r="4" fill="#dc2626" stroke="#fff" stroke-width="1" />
<circle cx="862.48" cy="498.9" r="4" fill="#dc2626" stroke="#fff" stroke-width="1" />
<circle cx="876.44" cy="499.35" r="4" fill="#dc2626" stroke="#fff" stroke-width="1" />
<circle cx="929.52" cy="478.58" r="4" fill="#dc2626" stroke="#fff" stroke-width="1" />
<circle cx="982.59" cy="452.88" r="4" fill="#dc2626" stroke="#fff" stroke-width="1" />
<circle cx="1035.66" cy="419.88" r="4" fill="#dc2626" stroke="#fff" stroke-width="1" />
<circle cx="1091.86" cy="379.27" r="4" fill="#dc2626" stroke="#fff" stroke-width="1" />
<circle cx="1144.93" cy="348.26" r="4" fill="#dc2626" stroke="#fff" stroke-width="1" />
<circle cx="1198.0" cy="308.62" r="4" fill="#dc2626" stroke="#fff" stroke-width="1" />
<polyline points="688.0,502.83 741.07,503.83 792.33,504.07 823.37,504.46 845.4,514.35 862.48,509.16 876.44,509.86 929.52,494.07 982.59,466.42 1035.66,447.19 1091.86,413.27 1144.93,374.87 1198.0,338.35" fill="none" stroke="#7c3aed" stroke-width="2.4" stroke-linejoin="round" stroke-linecap="round" />
<circle cx="688.0" cy="502.83" r="4" fill="#7c3aed" stroke="#fff" stroke-width="1" />
<circle cx="741.07" cy="503.83" r="4" fill="#7c3aed" stroke="#fff" stroke-width="1" />
<circle cx="792.33" cy="504.07" r="4" fill="#7c3aed" stroke="#fff" stroke-width="1" />
<circle cx="823.37" cy="504.46" r="4" fill="#7c3aed" stroke="#fff" stroke-width="1" />
<circle cx="845.4" cy="514.35" r="4" fill="#7c3aed" stroke="#fff" stroke-width="1" />
<circle cx="862.48" cy="509.16" r="4" fill="#7c3aed" stroke="#fff" stroke-width="1" />
<circle cx="876.44" cy="509.86" r="4" fill="#7c3aed" stroke="#fff" stroke-width="1" />
<circle cx="929.52" cy="494.07" r="4" fill="#7c3aed" stroke="#fff" stroke-width="1" />
<circle cx="982.59" cy="466.42" r="4" fill="#7c3aed" stroke="#fff" stroke-width="1" />
<circle cx="1035.66" cy="447.19" r="4" fill="#7c3aed" stroke="#fff" stroke-width="1" />
<circle cx="1091.86" cy="413.27" r="4" fill="#7c3aed" stroke="#fff" stroke-width="1" />
<circle cx="1144.93" cy="374.87" r="4" fill="#7c3aed" stroke="#fff" stroke-width="1" />
<circle cx="1198.0" cy="338.35" r="4" fill="#7c3aed" stroke="#fff" stroke-width="1" />
<text x="376" y="570" font-size="12" font-family="Segoe UI, Arial, sans-serif" font-weight="400" fill="#475569" text-anchor="end">JSON ratio</text>
<circle cx="440" cy="566" r="5" fill="#2563eb" stroke="#fff" stroke-width="1" />
<text x="450" y="570" font-size="12" font-family="Segoe UI, Arial, sans-serif" font-weight="400" fill="#111827" text-anchor="start">0%</text>
<circle cx="532" cy="566" r="5" fill="#059669" stroke="#fff" stroke-width="1" />
<text x="542" y="570" font-size="12" font-family="Segoe UI, Arial, sans-serif" font-weight="400" fill="#111827" text-anchor="start">10%</text>
<circle cx="624" cy="566" r="5" fill="#d97706" stroke="#fff" stroke-width="1" />
<text x="634" y="570" font-size="12" font-family="Segoe UI, Arial, sans-serif" font-weight="400" fill="#111827" text-anchor="start">25%</text>
<circle cx="716" cy="566" r="5" fill="#dc2626" stroke="#fff" stroke-width="1" />
<text x="726" y="570" font-size="12" font-family="Segoe UI, Arial, sans-serif" font-weight="400" fill="#111827" text-anchor="start">50%</text>
<circle cx="808" cy="566" r="5" fill="#7c3aed" stroke="#fff" stroke-width="1" />
<text x="818" y="570" font-size="12" font-family="Segoe UI, Arial, sans-serif" font-weight="400" fill="#111827" text-anchor="start">75%</text>
</svg>
